<svg width="333" height="52" viewBox="0 0 333 52" fill="none" xmlns="http://www.w3.org/2000/svg">
<path d="M63.2026 3.34619C69.7295 3.34621 75.02 8.63302 75.02 15.1538C75.02 19.8593 72.2638 23.9205 68.2759 25.8179L68.8726 23.9858L69.0269 23.5103L68.5513 23.356L55.0776 18.9858L54.6021 18.8315L54.4478 19.3071L53.5728 21.9966C52.1959 20.066 51.3853 17.7052 51.3853 15.1538C51.3853 8.633 56.6757 3.34619 63.2026 3.34619Z" fill="white" stroke="#B2B2B2"/>
<ellipse cx="68.1295" cy="15.1539" rx="7.39041" ry="7.38461" fill="black"/>
<path d="M95.8436 3.34619C102.371 3.34621 107.661 8.63302 107.661 15.1538C107.661 18.0037 106.649 20.6155 104.966 22.6558V22.0386H88.5692V24.4565C85.8037 22.2947 84.0262 18.9323 84.0262 15.1538C84.0263 8.633 89.3167 3.34619 95.8436 3.34619Z" fill="white" stroke="#B2B2B2"/>
<ellipse cx="100.771" cy="15.1539" rx="7.39041" ry="7.38461" fill="black"/>
<path d="M187.762 4.19226C191.433 4.19229 194.635 4.8061 197.353 6.05164C200.07 7.29655 202.171 9.06583 203.664 11.3456C205.157 13.625 205.918 16.273 205.933 19.288C205.94 20.6718 205.071 21.664 203.911 22.2831C202.756 22.8989 201.248 23.1912 199.759 23.1903C198.269 23.1893 196.741 22.8947 195.544 22.2831C194.347 21.6714 193.409 20.6978 193.299 19.33C193.192 17.987 192.694 16.9851 191.836 16.2635C190.999 15.5588 189.673 15.1571 187.762 15.1571C186.545 15.1571 185.583 15.3098 184.854 15.5839C184.126 15.8573 183.634 16.2064 183.329 16.6161C183.017 17.0361 182.858 17.5193 182.837 18.0848C182.82 18.5676 182.89 18.9657 183.065 19.2977C183.242 19.6346 183.548 19.9646 184 20.2772C184.444 20.5833 185.037 20.8668 185.787 21.1356C186.532 21.4024 187.427 21.645 188.475 21.8602C189.91 22.1549 190.73 22.3464 192.152 22.6473C194.659 23.1779 196.822 23.8809 198.631 24.7626C200.438 25.643 201.929 26.6917 203.102 27.9022C204.267 29.1046 205.127 30.4589 205.683 31.9667C206.236 33.4662 206.545 35.096 206.545 36.8602C206.545 39.8917 205.771 42.4886 204.244 44.6249C202.721 46.7554 200.55 48.3587 197.765 49.454C194.994 50.5437 191.685 51.0839 187.849 51.0839C183.908 51.0838 180.445 50.504 177.473 49.3221C174.5 48.1398 172.162 46.3114 170.505 43.8241C168.839 41.322 168.031 38.1383 168.016 34.327C168.011 32.9492 168.885 31.9636 170.045 31.3495C171.201 30.7379 172.709 30.4477 174.194 30.4481C175.679 30.4486 177.2 30.74 178.384 31.3485C179.569 31.9576 180.49 32.9308 180.563 34.2987C180.632 35.5999 180.955 36.6606 181.509 37.5038C182.064 38.3486 182.845 38.9962 183.87 39.4384C184.914 39.8882 186.178 40.119 187.674 40.119C188.934 40.119 189.958 39.9629 190.761 39.6688C191.574 39.3712 192.151 38.9725 192.532 38.494C192.92 38.0062 193.123 37.4657 193.123 36.8602C193.123 36.3086 192.927 35.8278 192.561 35.3876C192.201 34.9548 191.586 34.5278 190.65 34.1298C189.709 33.7298 188.424 33.3378 186.78 32.9774C185.038 32.5957 184.068 32.3953 182.32 32.0165C178.299 31.145 175.077 29.6889 172.712 27.5975C170.304 25.4682 169.154 22.5521 169.154 18.9403C169.154 16.0071 169.921 13.417 171.522 11.1962C173.125 8.9723 175.336 7.24951 178.135 6.02625C180.949 4.79656 184.163 4.19226 187.762 4.19226Z" fill="#EF2B2B" stroke="black"/>
<path d="M314.291 15.8846C316.88 15.8846 319.238 16.2859 321.359 17.0975C323.478 17.9085 325.297 19.091 326.807 20.6454C328.319 22.1861 329.478 24.0549 330.288 26.2421C331.099 28.4334 331.5 30.8903 331.5 33.6053V36.9022H309.63V36.9266C309.63 37.9328 309.84 38.8113 310.249 39.5751C310.656 40.3354 311.236 40.9303 312.001 41.3651C312.756 41.7943 313.688 42.0214 314.816 42.0214C315.6 42.0213 316.303 41.9112 316.93 41.6981L316.932 41.6971C317.574 41.4836 318.109 41.1805 318.548 40.7948C318.984 40.3969 319.303 39.9258 319.509 39.3749L319.63 39.0487H331.588L331.494 39.6288C331.102 42.0415 330.17 44.1507 328.696 45.9423L328.695 45.9432C327.221 47.7194 325.276 49.0906 322.878 50.0643L322.876 50.0653C320.486 51.0266 317.708 51.4999 314.554 51.4999C310.903 51.4999 307.728 50.8025 305.047 49.3876L305.044 49.3866C302.377 47.9564 300.317 45.9042 298.871 43.2401L298.869 43.2372C297.437 40.5567 296.732 37.3689 296.732 33.6923C296.732 30.1568 297.446 27.0421 298.891 24.3641C300.336 21.6886 302.379 19.6021 305.013 18.1132C307.652 16.6213 310.751 15.8847 314.291 15.8846ZM314.554 25.3641C313.652 25.3641 312.835 25.5579 312.094 25.9413L312.087 25.9452V25.9442C311.346 26.3143 310.758 26.825 310.312 27.4774C310.312 27.4786 310.311 27.4801 310.31 27.4813L310.308 27.4833C309.971 27.9968 309.758 28.5859 309.672 29.2587H319.354C319.277 28.5965 319.068 28.0123 318.729 27.4989L318.723 27.4901C318.305 26.8257 317.74 26.3112 317.016 25.9432L317.007 25.9384C316.301 25.5596 315.488 25.3641 314.554 25.3641Z" fill="#EF2B2B" stroke="black"/>
<path d="M226.572 15.8846C229.927 15.8847 232.857 16.4926 235.346 17.7284H235.345C237.844 18.9474 239.791 20.6848 241.17 22.9403L241.421 23.3661C242.635 25.5159 243.242 28.0012 243.256 30.8055L243.259 31.3075H231.102L231.061 30.8534C230.906 29.1573 230.421 27.938 229.662 27.1288L229.657 27.1229C228.913 26.3026 227.958 25.8886 226.747 25.8885C225.802 25.8885 224.993 26.1611 224.298 26.701L224.293 26.704C223.604 27.2268 223.04 28.0453 222.625 29.2059L222.624 29.2079C222.213 30.3446 221.998 31.8051 221.998 33.6053C221.998 35.4052 222.213 36.8738 222.625 38.0262C223.039 39.1681 223.602 39.9882 224.293 40.5272C224.988 41.0543 225.799 41.3221 226.747 41.3221C227.555 41.3221 228.25 41.1377 228.848 40.7831C229.447 40.4132 229.943 39.8723 230.329 39.1405L230.33 39.1376C230.727 38.3972 230.976 37.4784 231.06 36.3651L231.095 35.9022H243.264L243.256 36.4091C243.211 39.4404 242.515 42.1082 241.152 44.3944L241.151 44.3954C239.786 46.6671 237.854 48.4214 235.367 49.6561L235.366 49.6552C232.891 50.8912 229.955 51.4998 226.572 51.4999C222.862 51.4999 219.654 50.7653 216.969 49.2733L216.967 49.2723C214.29 47.7694 212.231 45.6754 210.8 42.9969L210.799 42.996C209.37 40.3049 208.663 37.1987 208.663 33.6923C208.663 30.186 209.37 27.0871 210.8 24.41C212.231 21.7168 214.29 19.6215 216.969 18.1327C219.654 16.6262 222.862 15.8846 226.572 15.8846Z" fill="#EF2B2B" stroke="black"/>
<path d="M262.824 15.8846C265.269 15.8846 267.476 16.1732 269.44 16.7577H269.44C271.394 17.3246 273.075 18.1268 274.472 19.1727C275.866 20.2025 276.938 21.4229 277.677 22.8348L277.815 23.0985C278.478 24.4265 278.809 25.8622 278.809 27.3983V50.8885H266.523V47.0175C265.969 47.8275 265.338 48.5229 264.624 49.0956L264.623 49.0946C263.621 49.91 262.475 50.5019 261.19 50.869L261.189 50.868C259.928 51.232 258.547 51.4129 257.051 51.413C254.854 51.413 252.889 51.0542 251.169 50.3241L251.164 50.3221C249.445 49.5705 248.083 48.4291 247.095 46.9012C246.096 45.3572 245.615 43.419 245.615 41.1219C245.615 39.2311 245.938 37.5863 246.606 36.2059C247.266 34.8252 248.192 33.69 249.383 32.8094C250.558 31.9406 251.917 31.2827 253.454 30.8309L253.455 30.83C254.993 30.3823 256.646 30.0933 258.411 29.9598L259.745 29.8456C261.007 29.7263 262.053 29.5911 262.889 29.4413C264.01 29.2282 264.746 28.9491 265.165 28.6415C265.553 28.3422 265.736 27.9712 265.736 27.4862V27.3983C265.736 26.6745 265.47 26.1639 264.944 25.7987C264.379 25.4054 263.626 25.1884 262.649 25.1884C261.57 25.1884 260.738 25.4272 260.114 25.8632L260.113 25.8641C259.536 26.2642 259.163 26.8917 259.032 27.8182L258.972 28.2479H246.891L246.929 27.7128C247.081 25.5853 247.759 23.6224 248.959 21.8319V21.8309C250.184 20.0097 251.959 18.5715 254.257 17.5057L254.697 17.3075C256.933 16.3515 259.648 15.8846 262.824 15.8846ZM265.448 36.5507L265.447 36.5497C265.086 36.6698 264.698 36.7817 264.282 36.8856L264.283 36.8866C263.879 36.9913 263.446 37.0867 262.986 37.1757L262.987 37.1766C262.542 37.2656 262.076 37.346 261.588 37.4198L261.589 37.4208C260.694 37.5605 259.99 37.7866 259.46 38.0839L259.456 38.0858C258.936 38.3719 258.57 38.7162 258.331 39.1093C258.105 39.4913 257.987 39.9248 257.987 40.4227C257.987 41.2224 258.261 41.7786 258.773 42.1659C259.324 42.5811 260.049 42.8075 260.987 42.8075C261.835 42.8075 262.622 42.6331 263.355 42.287L263.357 42.286C264.098 41.9426 264.693 41.4511 265.151 40.8094C265.592 40.1936 265.823 39.4327 265.823 38.4999V36.4227C265.7 36.4654 265.576 36.5098 265.448 36.5507Z" fill="#EF2B2B" stroke="black"/>
<path d="M294.653 0.5V51.3457H281.336V0.5H294.653Z" fill="#F6A027" stroke="black"/>
<rect x="281.836" y="10.2307" width="4.92694" height="0.615385" fill="black"/>
<rect x="281.836" y="1" width="4.92694" height="0.615385" fill="black"/>
<rect x="281.836" y="2.84619" width="2.46347" height="0.615385" fill="black"/>
<rect x="281.836" y="8.38464" width="2.46347" height="0.615385" fill="black"/>
<rect x="281.836" y="6.53845" width="2.46347" height="0.615385" fill="black"/>
<rect x="281.836" y="4.69226" width="2.46347" height="0.615385" fill="black"/>
<rect x="281.836" y="28.6923" width="4.92694" height="0.615385" fill="black"/>
<rect x="281.836" y="21.3077" width="2.46347" height="0.615385" fill="black"/>
<rect x="281.836" y="26.8462" width="2.46347" height="0.615385" fill="black"/>
<rect x="281.836" y="25" width="2.46347" height="0.615385" fill="black"/>
<rect x="281.836" y="23.1538" width="2.46347" height="0.615385" fill="black"/>
<rect x="281.836" y="19.4615" width="4.92694" height="0.615385" fill="black"/>
<rect x="281.836" y="12.0769" width="2.46347" height="0.615385" fill="black"/>
<rect x="281.836" y="17.6154" width="2.46347" height="0.615385" fill="black"/>
<rect x="281.836" y="15.7693" width="2.46347" height="0.615385" fill="black"/>
<rect x="281.836" y="13.9231" width="2.46347" height="0.615385" fill="black"/>
<rect x="281.836" y="37.3077" width="4.92694" height="0.615385" fill="black"/>
<rect x="281.836" y="29.9231" width="2.46347" height="0.615385" fill="black"/>
<rect x="281.836" y="35.4615" width="2.46347" height="0.615385" fill="black"/>
<rect x="281.836" y="33.6154" width="2.46347" height="0.615385" fill="black"/>
<rect x="281.836" y="31.7693" width="2.46347" height="0.615385" fill="black"/>
<rect x="281.836" y="48.3846" width="2.46347" height="0.615385" fill="black"/>
<rect x="281.836" y="46.5385" width="4.92694" height="0.615385" fill="black"/>
<rect x="281.836" y="39.1538" width="2.46347" height="0.615385" fill="black"/>
<rect x="281.836" y="44.6923" width="2.46347" height="0.615385" fill="black"/>
<rect x="281.836" y="42.8462" width="2.46347" height="0.615385" fill="black"/>
<rect x="281.836" y="41" width="2.46347" height="0.615385" fill="black"/>
<path d="M130.689 50.6783H117.567L132.351 5.9231H148.973L163.757 50.6783H150.635L140.837 18.2483H140.487L130.689 50.6783ZM128.24 33.021H152.909V42.1119H128.24V33.021Z" fill="black"/>
<mask id="path-38-outside-1_18_8" maskUnits="userSpaceOnUse" x="0" y="3.69226" width="115" height="48" fill="black">
<rect fill="white" y="3.69226" width="115" height="48"/>
<path d="M26.2821 19.2902C26.1654 17.8333 25.6157 16.7005 24.6418 15.8811C23.6765 15.0688 22.2142 14.6573 20.2459 14.6573C18.992 14.6573 17.9656 14.8142 17.1622 15.1162C16.3763 15.4116 15.7916 15.8082 15.4125 16.3181C15.0335 16.828 14.846 17.4111 14.822 18.0664C14.8023 18.6059 14.8789 19.098 15.1064 19.5306C15.331 19.9577 15.7007 20.344 16.1999 20.6888C16.6922 21.0288 17.3298 21.3298 18.1026 21.6066C18.8753 21.8834 19.7939 22.1311 20.8582 22.3496C22.2957 22.6447 23.0968 22.8325 24.5325 23.1363C27.0111 23.6608 29.1325 24.3528 30.8967 25.2124C32.6609 26.0719 34.1007 27.088 35.227 28.25C36.3461 29.4044 37.1671 30.6999 37.6984 32.1398C38.2314 33.5845 38.5294 35.1555 38.5294 36.8601C38.5294 39.803 37.7786 42.2942 36.3205 44.3339C34.8625 46.3735 32.7766 47.9226 30.0656 48.9886C27.3673 50.0496 24.1242 50.5839 20.3334 50.5839C16.4404 50.5839 13.0423 50.0109 10.1418 48.8575C7.25393 47.709 5.00117 45.942 3.40575 43.5472C1.80809 41.1489 1.0146 38.0693 1.00002 34.3251C0.982473 29.8191 12.308 29.8254 12.5475 34.3251C12.6204 35.6946 12.9631 36.8455 13.5754 37.7779C14.1878 38.7103 15.0469 39.4196 16.1561 39.8977C17.2777 40.3811 18.6129 40.6188 20.1584 40.6188C21.456 40.6188 22.5423 40.4586 23.4171 40.1381C24.2919 39.8176 24.9553 39.3732 25.4073 38.805C25.8593 38.2368 26.1071 37.5887 26.1071 36.8601C26.1071 36.1752 25.8587 35.5847 25.4291 35.0681C24.9984 34.5502 24.3039 34.0836 23.3296 33.6695C22.3501 33.2532 21.0332 32.8537 19.3711 32.4895C17.63 32.108 16.6514 31.9055 14.9095 31.5279C10.9437 30.6684 7.80945 29.2411 5.52717 27.2229C3.24583 25.2055 2.13728 22.437 2.13728 18.9405C2.13728 16.0996 2.87952 13.6147 4.41179 11.4886C5.95594 9.34601 8.09211 7.67618 10.8198 6.48422C13.5597 5.28691 16.7029 4.69226 20.2459 4.69226C23.8618 4.69226 26.9892 5.29686 29.6282 6.50607C32.2673 7.71528 34.2927 9.42533 35.73 11.6197C37.1651 13.8106 37.9025 16.3618 37.9171 19.2902C37.9397 23.8303 26.6444 23.8159 26.2821 19.2902Z"/>
<path d="M59.4265 50.6713C55.8398 50.6713 52.7488 49.9866 50.1535 48.6171C47.5728 47.2331 45.5826 45.2517 44.1829 42.673C42.7978 40.0798 42.1052 36.9766 42.1052 33.3636C42.1052 29.8962 42.8051 26.8659 44.2048 24.2727C45.6045 21.6794 47.5801 19.6617 50.1316 18.2194C52.6832 16.7771 55.694 16.0559 59.1641 16.0559C61.701 16.0559 63.9974 16.4493 66.0532 17.236C68.109 18.0227 69.8659 19.1663 71.3239 20.6669C72.782 22.1529 73.9046 23.9595 74.692 26.0865C75.4793 28.2135 75.873 30.6101 75.873 33.2762V36.0734H45.8669V29.43H64.7629C64.7483 28.4685 64.5004 27.6235 64.0193 26.8951C63.5527 26.1521 62.9185 25.5766 62.1166 25.1687C61.3292 24.7462 60.4325 24.5349 59.4265 24.5349C58.4496 24.5349 57.553 24.7462 56.7365 25.1687C55.92 25.5766 55.2639 26.1448 54.7681 26.8732C54.287 27.6016 54.0318 28.4539 54.0027 29.43V36.5979C54.0027 37.6759 54.2287 38.6375 54.6807 39.4825C55.1326 40.3275 55.7815 40.9903 56.6271 41.4711C57.4728 41.9519 58.4934 42.1923 59.6889 42.1923C60.52 42.1923 61.2782 42.0757 61.9635 41.8426C62.6633 41.6095 63.2611 41.2744 63.7568 40.8374C64.2525 40.3857 64.6171 39.8467 64.8503 39.2202H75.873C75.4939 41.5512 74.5972 43.5763 73.1829 45.2954C71.7686 47 69.8951 48.3257 67.5623 49.2727C65.244 50.2051 62.5321 50.6713 59.4265 50.6713Z"/>
<path d="M96.8958 50.6713C93.3091 50.6713 90.2181 49.9866 87.6228 48.6171C85.0421 47.2331 83.0519 45.2517 81.6522 42.673C80.2671 40.0798 79.5745 36.9766 79.5745 33.3636C79.5745 29.8962 80.2744 26.8659 81.6741 24.2727C83.0738 21.6794 85.0494 19.6617 87.6009 18.2194C90.1524 16.7771 93.1633 16.0559 96.6333 16.0559C99.1703 16.0559 101.467 16.4493 103.522 17.236C105.578 18.0227 107.335 19.1663 108.793 20.6669C110.251 22.1529 111.374 23.9595 112.161 26.0865C112.949 28.2135 113.342 30.6101 113.342 33.2762V36.0734H83.3362V29.43H102.232C102.218 28.4685 101.97 27.6235 101.489 26.8951C101.022 26.1521 100.388 25.5766 99.5858 25.1687C98.7985 24.7462 97.9018 24.5349 96.8958 24.5349C95.9189 24.5349 95.0222 24.7462 94.2057 25.1687C93.3893 25.5766 92.7331 26.1448 92.2374 26.8732C91.7563 27.6016 91.5011 28.4539 91.472 29.43V36.5979C91.472 37.6759 91.6979 38.6375 92.1499 39.4825C92.6019 40.3275 93.2507 40.9903 94.0964 41.4711C94.942 41.9519 95.9626 42.1923 97.1582 42.1923C97.9893 42.1923 98.7475 42.0757 99.4327 41.8426C100.133 41.6095 100.73 41.2744 101.226 40.8374C101.722 40.3857 102.086 39.8467 102.32 39.2202H113.342C112.963 41.5512 112.066 43.5763 110.652 45.2954C109.238 47 107.364 48.3257 105.032 49.2727C102.713 50.2051 100.001 50.6713 96.8958 50.6713Z"/>
</mask>
<path d="M26.2821 19.2902C26.1654 17.8333 25.6157 16.7005 24.6418 15.8811C23.6765 15.0688 22.2142 14.6573 20.2459 14.6573C18.992 14.6573 17.9656 14.8142 17.1622 15.1162C16.3763 15.4116 15.7916 15.8082 15.4125 16.3181C15.0335 16.828 14.846 17.4111 14.822 18.0664C14.8023 18.6059 14.8789 19.098 15.1064 19.5306C15.331 19.9577 15.7007 20.344 16.1999 20.6888C16.6922 21.0288 17.3298 21.3298 18.1026 21.6066C18.8753 21.8834 19.7939 22.1311 20.8582 22.3496C22.2957 22.6447 23.0968 22.8325 24.5325 23.1363C27.0111 23.6608 29.1325 24.3528 30.8967 25.2124C32.6609 26.0719 34.1007 27.088 35.227 28.25C36.3461 29.4044 37.1671 30.6999 37.6984 32.1398C38.2314 33.5845 38.5294 35.1555 38.5294 36.8601C38.5294 39.803 37.7786 42.2942 36.3205 44.3339C34.8625 46.3735 32.7766 47.9226 30.0656 48.9886C27.3673 50.0496 24.1242 50.5839 20.3334 50.5839C16.4404 50.5839 13.0423 50.0109 10.1418 48.8575C7.25393 47.709 5.00117 45.942 3.40575 43.5472C1.80809 41.1489 1.0146 38.0693 1.00002 34.3251C0.982473 29.8191 12.308 29.8254 12.5475 34.3251C12.6204 35.6946 12.9631 36.8455 13.5754 37.7779C14.1878 38.7103 15.0469 39.4196 16.1561 39.8977C17.2777 40.3811 18.6129 40.6188 20.1584 40.6188C21.456 40.6188 22.5423 40.4586 23.4171 40.1381C24.2919 39.8176 24.9553 39.3732 25.4073 38.805C25.8593 38.2368 26.1071 37.5887 26.1071 36.8601C26.1071 36.1752 25.8587 35.5847 25.4291 35.0681C24.9984 34.5502 24.3039 34.0836 23.3296 33.6695C22.3501 33.2532 21.0332 32.8537 19.3711 32.4895C17.63 32.108 16.6514 31.9055 14.9095 31.5279C10.9437 30.6684 7.80945 29.2411 5.52717 27.2229C3.24583 25.2055 2.13728 22.437 2.13728 18.9405C2.13728 16.0996 2.87952 13.6147 4.41179 11.4886C5.95594 9.34601 8.09211 7.67618 10.8198 6.48422C13.5597 5.28691 16.7029 4.69226 20.2459 4.69226C23.8618 4.69226 26.9892 5.29686 29.6282 6.50607C32.2673 7.71528 34.2927 9.42533 35.73 11.6197C37.1651 13.8106 37.9025 16.3618 37.9171 19.2902C37.9397 23.8303 26.6444 23.8159 26.2821 19.2902Z" fill="#2B7CEF"/>
<path d="M59.4265 50.6713C55.8398 50.6713 52.7488 49.9866 50.1535 48.6171C47.5728 47.2331 45.5826 45.2517 44.1829 42.673C42.7978 40.0798 42.1052 36.9766 42.1052 33.3636C42.1052 29.8962 42.8051 26.8659 44.2048 24.2727C45.6045 21.6794 47.5801 19.6617 50.1316 18.2194C52.6832 16.7771 55.694 16.0559 59.1641 16.0559C61.701 16.0559 63.9974 16.4493 66.0532 17.236C68.109 18.0227 69.8659 19.1663 71.3239 20.6669C72.782 22.1529 73.9046 23.9595 74.692 26.0865C75.4793 28.2135 75.873 30.6101 75.873 33.2762V36.0734H45.8669V29.43H64.7629C64.7483 28.4685 64.5004 27.6235 64.0193 26.8951C63.5527 26.1521 62.9185 25.5766 62.1166 25.1687C61.3292 24.7462 60.4325 24.5349 59.4265 24.5349C58.4496 24.5349 57.553 24.7462 56.7365 25.1687C55.92 25.5766 55.2639 26.1448 54.7681 26.8732C54.287 27.6016 54.0318 28.4539 54.0027 29.43V36.5979C54.0027 37.6759 54.2287 38.6375 54.6807 39.4825C55.1326 40.3275 55.7815 40.9903 56.6271 41.4711C57.4728 41.9519 58.4934 42.1923 59.6889 42.1923C60.52 42.1923 61.2782 42.0757 61.9635 41.8426C62.6633 41.6095 63.2611 41.2744 63.7568 40.8374C64.2525 40.3857 64.6171 39.8467 64.8503 39.2202H75.873C75.4939 41.5512 74.5972 43.5763 73.1829 45.2954C71.7686 47 69.8951 48.3257 67.5623 49.2727C65.244 50.2051 62.5321 50.6713 59.4265 50.6713Z" fill="#2B7CEF"/>
<path d="M96.8958 50.6713C93.3091 50.6713 90.2181 49.9866 87.6228 48.6171C85.0421 47.2331 83.0519 45.2517 81.6522 42.673C80.2671 40.0798 79.5745 36.9766 79.5745 33.3636C79.5745 29.8962 80.2744 26.8659 81.6741 24.2727C83.0738 21.6794 85.0494 19.6617 87.6009 18.2194C90.1524 16.7771 93.1633 16.0559 96.6333 16.0559C99.1703 16.0559 101.467 16.4493 103.522 17.236C105.578 18.0227 107.335 19.1663 108.793 20.6669C110.251 22.1529 111.374 23.9595 112.161 26.0865C112.949 28.2135 113.342 30.6101 113.342 33.2762V36.0734H83.3362V29.43H102.232C102.218 28.4685 101.97 27.6235 101.489 26.8951C101.022 26.1521 100.388 25.5766 99.5858 25.1687C98.7985 24.7462 97.9018 24.5349 96.8958 24.5349C95.9189 24.5349 95.0222 24.7462 94.2057 25.1687C93.3893 25.5766 92.7331 26.1448 92.2374 26.8732C91.7563 27.6016 91.5011 28.4539 91.472 29.43V36.5979C91.472 37.6759 91.6979 38.6375 92.1499 39.4825C92.6019 40.3275 93.2507 40.9903 94.0964 41.4711C94.942 41.9519 95.9626 42.1923 97.1582 42.1923C97.9893 42.1923 98.7475 42.0757 99.4327 41.8426C100.133 41.6095 100.73 41.2744 101.226 40.8374C101.722 40.3857 102.086 39.8467 102.32 39.2202H113.342C112.963 41.5512 112.066 43.5763 110.652 45.2954C109.238 47 107.364 48.3257 105.032 49.2727C102.713 50.2051 100.001 50.6713 96.8958 50.6713Z" fill="#2B7CEF"/>
<path d="M26.2821 19.2902C26.1654 17.8333 25.6157 16.7005 24.6418 15.8811C23.6765 15.0688 22.2142 14.6573 20.2459 14.6573C18.992 14.6573 17.9656 14.8142 17.1622 15.1162C16.3763 15.4116 15.7916 15.8082 15.4125 16.3181C15.0335 16.828 14.846 17.4111 14.822 18.0664C14.8023 18.6059 14.8789 19.098 15.1064 19.5306C15.331 19.9577 15.7007 20.344 16.1999 20.6888C16.6922 21.0288 17.3298 21.3298 18.1026 21.6066C18.8753 21.8834 19.7939 22.1311 20.8582 22.3496C22.2957 22.6447 23.0968 22.8325 24.5325 23.1363C27.0111 23.6608 29.1325 24.3528 30.8967 25.2124C32.6609 26.0719 34.1007 27.088 35.227 28.25C36.3461 29.4044 37.1671 30.6999 37.6984 32.1398C38.2314 33.5845 38.5294 35.1555 38.5294 36.8601C38.5294 39.803 37.7786 42.2942 36.3205 44.3339C34.8625 46.3735 32.7766 47.9226 30.0656 48.9886C27.3673 50.0496 24.1242 50.5839 20.3334 50.5839C16.4404 50.5839 13.0423 50.0109 10.1418 48.8575C7.25393 47.709 5.00117 45.942 3.40575 43.5472C1.80809 41.1489 1.0146 38.0693 1.00002 34.3251C0.982473 29.8191 12.308 29.8254 12.5475 34.3251C12.6204 35.6946 12.9631 36.8455 13.5754 37.7779C14.1878 38.7103 15.0469 39.4196 16.1561 39.8977C17.2777 40.3811 18.6129 40.6188 20.1584 40.6188C21.456 40.6188 22.5423 40.4586 23.4171 40.1381C24.2919 39.8176 24.9553 39.3732 25.4073 38.805C25.8593 38.2368 26.1071 37.5887 26.1071 36.8601C26.1071 36.1752 25.8587 35.5847 25.4291 35.0681C24.9984 34.5502 24.3039 34.0836 23.3296 33.6695C22.3501 33.2532 21.0332 32.8537 19.3711 32.4895C17.63 32.108 16.6514 31.9055 14.9095 31.5279C10.9437 30.6684 7.80945 29.2411 5.52717 27.2229C3.24583 25.2055 2.13728 22.437 2.13728 18.9405C2.13728 16.0996 2.87952 13.6147 4.41179 11.4886C5.95594 9.34601 8.09211 7.67618 10.8198 6.48422C13.5597 5.28691 16.7029 4.69226 20.2459 4.69226C23.8618 4.69226 26.9892 5.29686 29.6282 6.50607C32.2673 7.71528 34.2927 9.42533 35.73 11.6197C37.1651 13.8106 37.9025 16.3618 37.9171 19.2902C37.9397 23.8303 26.6444 23.8159 26.2821 19.2902Z" stroke="black" stroke-width="2" mask="url(#path-38-outside-1_18_8)"/>
<path d="M59.4265 50.6713C55.8398 50.6713 52.7488 49.9866 50.1535 48.6171C47.5728 47.2331 45.5826 45.2517 44.1829 42.673C42.7978 40.0798 42.1052 36.9766 42.1052 33.3636C42.1052 29.8962 42.8051 26.8659 44.2048 24.2727C45.6045 21.6794 47.5801 19.6617 50.1316 18.2194C52.6832 16.7771 55.694 16.0559 59.1641 16.0559C61.701 16.0559 63.9974 16.4493 66.0532 17.236C68.109 18.0227 69.8659 19.1663 71.3239 20.6669C72.782 22.1529 73.9046 23.9595 74.692 26.0865C75.4793 28.2135 75.873 30.6101 75.873 33.2762V36.0734H45.8669V29.43H64.7629C64.7483 28.4685 64.5004 27.6235 64.0193 26.8951C63.5527 26.1521 62.9185 25.5766 62.1166 25.1687C61.3292 24.7462 60.4325 24.5349 59.4265 24.5349C58.4496 24.5349 57.553 24.7462 56.7365 25.1687C55.92 25.5766 55.2639 26.1448 54.7681 26.8732C54.287 27.6016 54.0318 28.4539 54.0027 29.43V36.5979C54.0027 37.6759 54.2287 38.6375 54.6807 39.4825C55.1326 40.3275 55.7815 40.9903 56.6271 41.4711C57.4728 41.9519 58.4934 42.1923 59.6889 42.1923C60.52 42.1923 61.2782 42.0757 61.9635 41.8426C62.6633 41.6095 63.2611 41.2744 63.7568 40.8374C64.2525 40.3857 64.6171 39.8467 64.8503 39.2202H75.873C75.4939 41.5512 74.5972 43.5763 73.1829 45.2954C71.7686 47 69.8951 48.3257 67.5623 49.2727C65.244 50.2051 62.5321 50.6713 59.4265 50.6713Z" stroke="black" stroke-width="2" mask="url(#path-38-outside-1_18_8)"/>
<path d="M96.8958 50.6713C93.3091 50.6713 90.2181 49.9866 87.6228 48.6171C85.0421 47.2331 83.0519 45.2517 81.6522 42.673C80.2671 40.0798 79.5745 36.9766 79.5745 33.3636C79.5745 29.8962 80.2744 26.8659 81.6741 24.2727C83.0738 21.6794 85.0494 19.6617 87.6009 18.2194C90.1524 16.7771 93.1633 16.0559 96.6333 16.0559C99.1703 16.0559 101.467 16.4493 103.522 17.236C105.578 18.0227 107.335 19.1663 108.793 20.6669C110.251 22.1529 111.374 23.9595 112.161 26.0865C112.949 28.2135 113.342 30.6101 113.342 33.2762V36.0734H83.3362V29.43H102.232C102.218 28.4685 101.97 27.6235 101.489 26.8951C101.022 26.1521 100.388 25.5766 99.5858 25.1687C98.7985 24.7462 97.9018 24.5349 96.8958 24.5349C95.9189 24.5349 95.0222 24.7462 94.2057 25.1687C93.3893 25.5766 92.7331 26.1448 92.2374 26.8732C91.7563 27.6016 91.5011 28.4539 91.472 29.43V36.5979C91.472 37.6759 91.6979 38.6375 92.1499 39.4825C92.6019 40.3275 93.2507 40.9903 94.0964 41.4711C94.942 41.9519 95.9626 42.1923 97.1582 42.1923C97.9893 42.1923 98.7475 42.0757 99.4327 41.8426C100.133 41.6095 100.73 41.2744 101.226 40.8374C101.722 40.3857 102.086 39.8467 102.32 39.2202H113.342C112.963 41.5512 112.066 43.5763 110.652 45.2954C109.238 47 107.364 48.3257 105.032 49.2727C102.713 50.2051 100.001 50.6713 96.8958 50.6713Z" stroke="black" stroke-width="2" mask="url(#path-38-outside-1_18_8)"/>
</svg>
