<svg width="30" height="30" viewBox="0 0 30 30" fill="none" xmlns="http://www.w3.org/2000/svg">
<path d="M15 1.31134e-07C22.4674 1.31134e-07 28.6599 5.4566 29.8087 12.6H25.839C24.742 7.62347 20.3062 3.9 15 3.9C8.86964 3.9 3.9 8.86964 3.9 15C3.9 21.1304 8.86964 26.1 15 26.1C20.7249 26.1 25.4369 21.7659 26.0353 16.2H29.9525C29.3412 23.9232 22.8803 30 15 30C6.71573 30 0 23.2843 0 15C0 6.71573 6.71573 1.31134e-07 15 1.31134e-07Z" fill="black"/>
<path d="M17.4 9.6H30V12.6H17.4V9.6Z" fill="black"/>
<path d="M27 12.6V1.31134e-07L30 0V12.6H27Z" fill="black"/>
</svg>
